<svg xmlns="http://www.w3.org/2000/svg" width="620" height="620" viewBox="0 0 620 620" role="img" aria-label="ჯაგრისისა და აქანდაზის კომპლექტი">
  <defs><linearGradient id="bg" x1="0" x2="1" y1="0" y2="1"><stop stop-color="#f2eee5"/><stop offset="1" stop-color="#d5ded9"/></linearGradient><filter id="s"><feDropShadow dx="0" dy="18" stdDeviation="14" flood-opacity=".22"/></filter></defs>
  <rect width="620" height="620" fill="url(#bg)"/><path d="M0 470h620v150H0z" fill="#c9b69e"/><g opacity=".25" stroke="#fff" stroke-width="4"><path d="M0 470h620M0 520h620M0 570h620"/></g>
  <g filter="url(#s)"><path d="M210 90l-22 330" stroke="#355a49" stroke-width="18" stroke-linecap="round"/><path d="M420 75l-24 355" stroke="#244b3a" stroke-width="18" stroke-linecap="round"/><path d="M140 390h130l-18 120H112z" fill="#f2f3f2" stroke="#a9b6b0" stroke-width="7"/><path d="M348 395h135l-22 118H325z" fill="#f26a2e"/><path d="M335 414h150" stroke="#0f6b46" stroke-width="25" stroke-linecap="round"/><path d="M318 420c45 28 106 28 176 0" fill="none" stroke="#253f34" stroke-width="28" stroke-linecap="round"/><path d="M138 385c26 22 76 22 126 0" fill="none" stroke="#426f5a" stroke-width="24" stroke-linecap="round"/></g>
  <circle cx="95" cy="92" r="48" fill="#0f6b46"/><text x="95" y="101" text-anchor="middle" font-family="Arial,sans-serif" font-size="25" font-weight="700" fill="white">SET</text>
</svg>