<svg xmlns="http://www.w3.org/2000/svg" width="620" height="620" viewBox="0 0 620 620" role="img" aria-label="აბაზანის კარადა ნიჟარით">
  <defs><linearGradient id="bg" x1="0" x2="1" y1="0" y2="1"><stop stop-color="#d8ddd9"/><stop offset="1" stop-color="#9da9a3"/></linearGradient><filter id="s"><feDropShadow dx="0" dy="18" stdDeviation="17" flood-opacity=".25"/></filter></defs>
  <rect width="620" height="620" fill="url(#bg)"/><g opacity=".28" stroke="#fff" stroke-width="3"><path d="M0 206h620M0 412h620M206 0v620M412 0v620"/></g>
  <g filter="url(#s)"><rect x="165" y="70" width="290" height="185" rx="16" fill="#eef3f0" stroke="#fff" stroke-width="8"/><rect x="188" y="93" width="244" height="139" rx="9" fill="#cbd8d2"/><rect x="145" y="330" width="330" height="226" rx="12" fill="#f2f4f3"/><path d="M145 330h330l-24 68H170z" fill="#fff" stroke="#c8d2cd" stroke-width="5"/><ellipse cx="310" cy="350" rx="96" ry="26" fill="#e3ebe7"/><rect x="168" y="412" width="137" height="122" rx="6" fill="#e5e9e7"/><rect x="315" y="412" width="137" height="122" rx="6" fill="#d9dfdc"/><circle cx="293" cy="473" r="5" fill="#68766f"/><circle cx="327" cy="473" r="5" fill="#68766f"/><path d="M310 287v48m0-48c0-19 38-19 38 0" stroke="#30443a" stroke-width="10" fill="none" stroke-linecap="round"/></g>
</svg>