<svg xmlns="http://www.w3.org/2000/svg" width="620" height="620" viewBox="0 0 620 620" role="img" aria-label="აბაზანის ღია ფერის კომპლექტი">
  <defs><linearGradient id="bg" x1="0" x2="1" y1="0" y2="1"><stop stop-color="#d6d0c9"/><stop offset="1" stop-color="#9d9690"/></linearGradient><linearGradient id="cab" x1="0" x2="1"><stop stop-color="#d8d2c9"/><stop offset="1" stop-color="#bdb5aa"/></linearGradient><filter id="s"><feDropShadow dx="0" dy="20" stdDeviation="18" flood-opacity=".25"/></filter></defs>
  <rect width="620" height="620" fill="url(#bg)"/><g opacity=".25" stroke="#f7f3ef" stroke-width="3"><path d="M0 205h620M0 410h620M205 0v620M410 0v620"/></g>
  <g filter="url(#s)"><rect x="170" y="55" width="280" height="205" rx="38" fill="#e8ece9" stroke="#fff" stroke-width="8"/><ellipse cx="310" cy="156" rx="115" ry="73" fill="#cbd4d0"/><rect x="142" y="343" width="336" height="213" rx="14" fill="url(#cab)"/><rect x="158" y="370" width="304" height="78" rx="8" fill="#cbc4ba"/><rect x="158" y="462" width="304" height="76" rx="8" fill="#bfb7ac"/><path d="M130 335h360l-22 50H152z" fill="#fff" stroke="#d0d8d4" stroke-width="5"/><ellipse cx="310" cy="345" rx="104" ry="29" fill="#e4ebe7"/><path d="M310 293v48m0-48c0-18 38-18 38 0" stroke="#2b3c34" stroke-width="9" fill="none" stroke-linecap="round"/><rect x="279" y="405" width="62" height="6" rx="3" fill="#6d746f"/><rect x="279" y="497" width="62" height="6" rx="3" fill="#6d746f"/></g>
</svg>