<svg xmlns="http://www.w3.org/2000/svg" width="620" height="620" viewBox="0 0 620 620" role="img" aria-label="ხის ფაქტურის აბაზანის ავეჯი">
  <defs><linearGradient id="bg" x1="0" x2="1" y1="0" y2="1"><stop stop-color="#d5d2cc"/><stop offset="1" stop-color="#9ca39f"/></linearGradient><linearGradient id="wood" x1="0" x2="1"><stop stop-color="#95623e"/><stop offset=".5" stop-color="#c38d5e"/><stop offset="1" stop-color="#7f5135"/></linearGradient><filter id="s"><feDropShadow dx="0" dy="20" stdDeviation="18" flood-opacity=".25"/></filter></defs>
  <rect width="620" height="620" fill="url(#bg)"/><g opacity=".24" stroke="#fff" stroke-width="3"><path d="M0 206h620M0 412h620M206 0v620M412 0v620"/></g>
  <g filter="url(#s)"><rect x="180" y="65" width="260" height="190" rx="18" fill="#edf2ef" stroke="#fff" stroke-width="8"/><rect x="202" y="88" width="216" height="144" rx="10" fill="#c8d4ce"/><rect x="145" y="350" width="330" height="205" rx="14" fill="url(#wood)"/><path d="M132 336h356l-21 59H153z" fill="#fff" stroke="#cad4cf" stroke-width="5"/><ellipse cx="310" cy="350" rx="100" ry="27" fill="#e6ece9"/><path d="M310 292v49m0-49c0-18 40-18 40 0" stroke="#2e4037" stroke-width="9" fill="none" stroke-linecap="round"/><path d="M255 414h110M255 478h110" stroke="#574236" stroke-width="7" stroke-linecap="round"/><g opacity=".25" stroke="#f4d7bd" stroke-width="3"><path d="M170 370c34 25 76-25 110 0s76-25 110 0 50-9 60-2M170 447c34 25 76-25 110 0s76-25 110 0 50-9 60-2"/></g></g>
</svg>