<svg xmlns="http://www.w3.org/2000/svg" width="620" height="620" viewBox="0 0 620 620" role="img" aria-label="კედლის თმის საშრობი">
  <defs><linearGradient id="bg" x1="0" x2="1" y1="0" y2="1"><stop stop-color="#ebe8e2"/><stop offset="1" stop-color="#c7d2cc"/></linearGradient><linearGradient id="body" x1="0" x2="1"><stop stop-color="#fff"/><stop offset="1" stop-color="#d7dedb"/></linearGradient><filter id="s"><feDropShadow dx="0" dy="20" stdDeviation="18" flood-opacity=".24"/></filter></defs>
  <rect width="620" height="620" fill="url(#bg)"/><g opacity=".3" stroke="#fff" stroke-width="3"><path d="M0 206h620M0 412h620M206 0v620M412 0v620"/></g>
  <g filter="url(#s)"><rect x="125" y="152" width="190" height="285" rx="36" fill="url(#body)" stroke="#c5cfca" stroke-width="7"/><rect x="158" y="190" width="124" height="58" rx="14" fill="#e2e8e5"/><circle cx="220" cy="219" r="15" fill="#0f6b46"/><rect x="172" y="280" width="96" height="104" rx="18" fill="#f3f5f4"/><path d="M263 335c68 12 80 95 29 130s-17 82 40 67c70-18 107-82 102-158" fill="none" stroke="#f7f8f7" stroke-width="18" stroke-linecap="round"/><path d="M410 153c45 0 75 26 75 69s-32 70-76 70h-80c-32 0-57-25-57-57v-25c0-32 25-57 57-57z" fill="url(#body)" stroke="#c4ceca" stroke-width="7"/><path d="M487 186l62 20v34l-62 18" fill="#d6ddda"/><path d="M339 290l-30 116h82l8-116" fill="#edf1ef" stroke="#c5cfca" stroke-width="7"/><rect x="331" y="372" width="58" height="22" rx="11" fill="#26362f"/></g>
  <circle cx="94" cy="92" r="47" fill="#f26a2e"/><path d="M73 95c22-28 42-28 47 0" fill="none" stroke="white" stroke-width="8" stroke-linecap="round"/>
</svg>