<svg xmlns="http://www.w3.org/2000/svg" width="620" height="620" viewBox="0 0 620 620" role="img" aria-label="ელექტრო ჩაიდანი">
  <defs><linearGradient id="bg" x1="0" x2="1" y1="0" y2="1"><stop stop-color="#f5f1e9"/><stop offset="1" stop-color="#d4ddd8"/></linearGradient><linearGradient id="steel" x1="0" x2="1"><stop stop-color="#f6f7f6"/><stop offset=".35" stop-color="#9da9a4"/><stop offset=".62" stop-color="#f2f4f3"/><stop offset="1" stop-color="#7d8983"/></linearGradient><filter id="s"><feDropShadow dx="0" dy="22" stdDeviation="18" flood-opacity=".24"/></filter></defs>
  <rect width="620" height="620" fill="url(#bg)"/><rect y="458" width="620" height="162" fill="#c9b79d"/>
  <g filter="url(#s)" transform="translate(120 90)"><path d="M130 86h195c20 0 34 16 33 36l-15 276c-2 42-37 75-79 75H167c-42 0-76-33-79-75L69 124c-2-21 14-38 34-38z" fill="url(#steel)"/><path d="M116 86l18-48h174l22 48" fill="#242d29"/><rect x="151" y="25" width="136" height="30" rx="15" fill="#1c2521"/><path d="M355 145c96 8 112 187 12 236" fill="none" stroke="#26312c" stroke-width="34" stroke-linecap="round"/><path d="M359 180c51 6 58 124 7 151" fill="none" stroke="#dce2df" stroke-width="11" stroke-linecap="round"/><path d="M66 132L5 178l70 10" fill="#c7d0cc" stroke="#7e8b85" stroke-width="6"/><rect x="145" y="408" width="153" height="34" rx="17" fill="#1f2824"/><circle cx="306" cy="356" r="7" fill="#f26a2e"/></g>
  <circle cx="92" cy="91" r="46" fill="#0f6b46"/><text x="92" y="100" text-anchor="middle" font-family="Arial,sans-serif" font-size="24" font-weight="700" fill="white">1.7L</text>
</svg>