<svg xmlns="http://www.w3.org/2000/svg" width="620" height="620" viewBox="0 0 620 620" role="img" aria-label="ენერგოეფექტური LED ნათურა">
  <defs><radialGradient id="bg"><stop stop-color="#fff8c9"/><stop offset=".55" stop-color="#e8eee9"/><stop offset="1" stop-color="#b8c8c0"/></radialGradient><linearGradient id="bulb" x1="0" x2="1"><stop stop-color="#fff"/><stop offset="1" stop-color="#dfe7e3"/></linearGradient><filter id="s"><feDropShadow dx="0" dy="22" stdDeviation="18" flood-opacity=".22"/></filter></defs>
  <rect width="620" height="620" fill="url(#bg)"/><g opacity=".45" stroke="#fff" stroke-width="8" stroke-linecap="round"><path d="M310 52v58M130 130l42 42M490 130l-42 42M74 308h60M486 308h60"/></g>
  <g filter="url(#s)" transform="translate(168 78)"><path d="M142 0c86 0 146 64 146 146 0 59-27 95-66 132-25 24-34 51-35 79H96c-2-30-12-58-38-81C22 243 0 208 0 146 0 63 59 0 142 0z" fill="url(#bulb)" stroke="#cbd5d0" stroke-width="8"/><path d="M56 146c0-48 34-90 86-90" fill="none" stroke="#fff" stroke-width="20" stroke-linecap="round"/><path d="M95 357h94v86c0 28-21 51-47 51s-47-23-47-51z" fill="#c0c9c5"/><path d="M94 374h96M94 397h96M94 420h96" stroke="#75827c" stroke-width="9"/><path d="M112 445h60" stroke="#555f5a" stroke-width="10" stroke-linecap="round"/></g>
  <circle cx="488" cy="92" r="51" fill="#0f6b46"/><text x="488" y="84" text-anchor="middle" font-family="Arial,sans-serif" font-size="20" font-weight="700" fill="white">LED</text><text x="488" y="109" text-anchor="middle" font-family="Arial,sans-serif" font-size="16" fill="#d9f1e4">E27</text>
</svg>