<svg xmlns="http://www.w3.org/2000/svg" width="620" height="620" viewBox="0 0 620 620" role="img" aria-label="ორმაგი სათლის საწმენდი კომპლექტი">
  <defs><linearGradient id="bg" x1="0" x2="1" y1="0" y2="1"><stop stop-color="#eef1ee"/><stop offset="1" stop-color="#c8d5ce"/></linearGradient><filter id="s"><feDropShadow dx="0" dy="18" stdDeviation="16" flood-opacity=".22"/></filter></defs>
  <rect width="620" height="620" fill="url(#bg)"/><rect y="462" width="620" height="158" fill="#d2c4b0"/>
  <g filter="url(#s)"><path d="M392 62l-36 376" stroke="#67756e" stroke-width="17" stroke-linecap="round"/><path d="M390 70l-22 230" stroke="#d93232" stroke-width="8" stroke-linecap="round"/><path d="M215 355h230l-18 169H231z" fill="#d9262d"/><path d="M220 355h105l-8 169h-86z" fill="#f5f5f4"/><ellipse cx="270" cy="366" rx="48" ry="22" fill="#ccd5d1"/><ellipse cx="379" cy="366" rx="57" ry="23" fill="#a91e24"/><path d="M198 350c18-54 250-54 270 0" fill="none" stroke="#777f7b" stroke-width="12"/><path d="M310 440c30 15 65 15 98 0" stroke="#f0f1f0" stroke-width="22" stroke-linecap="round"/><path d="M333 430c-12 36-10 69 8 103m15-102c-6 42-1 74 17 101m8-105c2 42 11 72 28 96" fill="none" stroke="#f8f8f7" stroke-width="7" stroke-linecap="round"/></g>
  <circle cx="91" cy="92" r="47" fill="#f26a2e"/><path d="M70 92h42M91 71v42" stroke="white" stroke-width="8" stroke-linecap="round"/>
</svg>